<?xml version="1.0" encoding="UTF-8" standalone="no"?>
<!DOCTYPE svg PUBLIC "-//W3C//DTD SVG 1.1//EN"
 "http://www.w3.org/Graphics/SVG/1.1/DTD/svg11.dtd">
<!-- Generated by graphviz version 2.40.1 (20161225.0304)
 -->
<!-- Title: dependencies Pages: 1 -->
<svg width="1137pt" height="396pt"
 viewBox="0.00 0.00 1137.00 395.59" xmlns="http://www.w3.org/2000/svg" xmlns:xlink="http://www.w3.org/1999/xlink">
<g id="graph0" class="graph" transform="scale(1 1) rotate(0) translate(4 391.5901)">
<title>dependencies</title>
<polygon fill="#ffffff" stroke="transparent" points="-4,4 -4,-391.5901 1133,-391.5901 1133,4 -4,4"/>
<text text-anchor="start" x="543.5091" y="-42.4" font-family="sans-serif" font-weight="bold" font-size="14.00" fill="#000000">Legend</text>
<polygon fill="#ffffb3" stroke="transparent" points="330.5,-10 330.5,-30 350.5,-30 350.5,-10 330.5,-10"/>
<text text-anchor="start" x="354.129" y="-15.4" font-family="sans-serif" font-size="14.00" fill="#000000"> &#160;Declarations</text>
<polygon fill="#8dd3c7" stroke="transparent" points="443.5,-10 443.5,-30 463.5,-30 463.5,-10 443.5,-10"/>
<text text-anchor="start" x="467.2251" y="-15.4" font-family="sans-serif" font-size="14.00" fill="#000000"> &#160;Module</text>
<polygon fill="#80b1d3" stroke="transparent" points="529.5,-10 529.5,-30 549.5,-30 549.5,-10 529.5,-10"/>
<text text-anchor="start" x="553.2812" y="-15.4" font-family="sans-serif" font-size="14.00" fill="#000000"> &#160;Bootstrap</text>
<polygon fill="#fdb462" stroke="transparent" points="626.5,-10 626.5,-30 646.5,-30 646.5,-10 626.5,-10"/>
<text text-anchor="start" x="650.1732" y="-15.4" font-family="sans-serif" font-size="14.00" fill="#000000"> &#160;Providers</text>
<polygon fill="#fb8072" stroke="transparent" points="722.5,-10 722.5,-30 742.5,-30 742.5,-10 722.5,-10"/>
<text text-anchor="start" x="746.2258" y="-15.4" font-family="sans-serif" font-size="14.00" fill="#000000"> &#160;Exports</text>
<g id="clust1" class="cluster">
<title>cluster_NgxEditorModule</title>
<polygon fill="none" stroke="#000000" stroke-dasharray="1,5" points="8,-70 8,-379.5901 1121,-379.5901 1121,-70 8,-70"/>
</g>
<g id="clust2" class="cluster">
<title>cluster_NgxEditorModule_declarations</title>
<polygon fill="none" stroke="#000000" points="452,-189.5901 452,-241.5901 1113,-241.5901 1113,-189.5901 452,-189.5901"/>
</g>
<g id="clust5" class="cluster">
<title>cluster_NgxEditorModule_NgxEditorComponent_providers</title>
<polygon fill="none" stroke="#000000" points="634,-78 634,-176.5901 832,-176.5901 832,-78 634,-78"/>
</g>
<g id="clust8" class="cluster">
<title>cluster_NgxEditorModule_exports</title>
<polygon fill="none" stroke="#000000" points="562,-319.5901 562,-371.5901 722,-371.5901 722,-319.5901 562,-319.5901"/>
</g>
<g id="clust10" class="cluster">
<title>cluster_NgxEditorModule_providers</title>
<polygon fill="none" stroke="#000000" points="16,-189.5901 16,-241.5901 444,-241.5901 444,-189.5901 16,-189.5901"/>
</g>
<!-- GrippieComponent -->
<g id="node1" class="node">
<title>GrippieComponent</title>
<polygon fill="#ffffb3" stroke="#000000" points="1105.0954,-233.5901 980.9046,-233.5901 980.9046,-197.5901 1105.0954,-197.5901 1105.0954,-233.5901"/>
<text text-anchor="middle" x="1043" y="-211.3901" font-family="Times,serif" font-size="14.00" fill="#000000">GrippieComponent</text>
</g>
<!-- NgxEditorModule -->
<g id="node5" class="node">
<title>NgxEditorModule</title>
<polygon fill="#8dd3c7" stroke="#000000" points="701.1513,-298.5901 698.1513,-302.5901 677.1513,-302.5901 674.1513,-298.5901 582.8487,-298.5901 582.8487,-262.5901 701.1513,-262.5901 701.1513,-298.5901"/>
<text text-anchor="middle" x="642" y="-276.3901" font-family="Times,serif" font-size="14.00" fill="#000000">NgxEditorModule</text>
</g>
<!-- GrippieComponent&#45;&gt;NgxEditorModule -->
<g id="edge1" class="edge">
<title>GrippieComponent&#45;&gt;NgxEditorModule</title>
<path fill="none" stroke="#000000" d="M1043,-233.8743C1043,-254.9111 1043,-286.5901 1043,-286.5901 1043,-286.5901 711.1689,-286.5901 711.1689,-286.5901"/>
<polygon fill="#000000" stroke="#000000" points="711.169,-283.0902 701.1689,-286.5901 711.1689,-290.0902 711.169,-283.0902"/>
</g>
<!-- MessengerComponent -->
<g id="node2" class="node">
<title>MessengerComponent</title>
<polygon fill="#ffffb3" stroke="#000000" points="962.9706,-233.5901 821.0294,-233.5901 821.0294,-197.5901 962.9706,-197.5901 962.9706,-233.5901"/>
<text text-anchor="middle" x="892" y="-211.3901" font-family="Times,serif" font-size="14.00" fill="#000000">MessengerComponent</text>
</g>
<!-- MessengerComponent&#45;&gt;NgxEditorModule -->
<g id="edge2" class="edge">
<title>MessengerComponent&#45;&gt;NgxEditorModule</title>
<path fill="none" stroke="#000000" d="M892,-233.6126C892,-250.9634 892,-274.5901 892,-274.5901 892,-274.5901 711.2465,-274.5901 711.2465,-274.5901"/>
<polygon fill="#000000" stroke="#000000" points="711.2465,-271.0902 701.2465,-274.5901 711.2465,-278.0902 711.2465,-271.0902"/>
</g>
<!-- NgxEditorComponent -->
<g id="node3" class="node">
<title>NgxEditorComponent</title>
<polygon fill="#ffffb3" stroke="#000000" points="803.4341,-233.5901 662.5659,-233.5901 662.5659,-197.5901 803.4341,-197.5901 803.4341,-233.5901"/>
<text text-anchor="middle" x="733" y="-211.3901" font-family="Times,serif" font-size="14.00" fill="#000000">NgxEditorComponent</text>
</g>
<!-- NgxEditorComponent&#45;&gt;NgxEditorModule -->
<g id="edge3" class="edge">
<title>NgxEditorComponent&#45;&gt;NgxEditorModule</title>
<path fill="none" stroke="#000000" d="M682.0544,-233.6962C682.0544,-233.6962 682.0544,-252.581 682.0544,-252.581"/>
<polygon fill="#000000" stroke="#000000" points="678.5544,-252.581 682.0544,-262.581 685.5544,-252.5811 678.5544,-252.581"/>
</g>
<!-- NgxEditorToolbarComponent -->
<g id="node4" class="node">
<title>NgxEditorToolbarComponent</title>
<polygon fill="#ffffb3" stroke="#000000" points="644.252,-233.5901 459.748,-233.5901 459.748,-197.5901 644.252,-197.5901 644.252,-233.5901"/>
<text text-anchor="middle" x="552" y="-211.3901" font-family="Times,serif" font-size="14.00" fill="#000000">NgxEditorToolbarComponent</text>
</g>
<!-- NgxEditorToolbarComponent&#45;&gt;NgxEditorModule -->
<g id="edge5" class="edge">
<title>NgxEditorToolbarComponent&#45;&gt;NgxEditorModule</title>
<path fill="none" stroke="#000000" d="M613.5253,-233.6962C613.5253,-233.6962 613.5253,-252.581 613.5253,-252.581"/>
<polygon fill="#000000" stroke="#000000" points="610.0253,-252.581 613.5253,-262.581 617.0253,-252.5811 610.0253,-252.581"/>
</g>
<!-- NgxEditorComponent  -->
<g id="node7" class="node">
<title>NgxEditorComponent </title>
<polygon fill="#fb8072" stroke="#000000" points="713.9334,-363.5901 570.0666,-363.5901 570.0666,-327.5901 713.9334,-327.5901 713.9334,-363.5901"/>
<text text-anchor="middle" x="642" y="-341.3901" font-family="Times,serif" font-size="14.00" fill="#000000">NgxEditorComponent </text>
</g>
<!-- NgxEditorModule&#45;&gt;NgxEditorComponent  -->
<g id="edge6" class="edge">
<title>NgxEditorModule&#45;&gt;NgxEditorComponent </title>
<path fill="none" stroke="#000000" stroke-dasharray="5,2" d="M642,-298.6962C642,-298.6962 642,-317.581 642,-317.581"/>
<polygon fill="#000000" stroke="#000000" points="638.5001,-317.581 642,-327.581 645.5001,-317.5811 638.5001,-317.581"/>
</g>
<!-- {
 &#160;&#160;&#160;: , : (() =&gt; ), : true
} -->
<g id="node6" class="node">
<title>{
 &#160;&#160;&#160;: , : (() =&gt; ), : true
}</title>
<ellipse fill="#fdb462" stroke="#000000" cx="733" cy="-127.295" rx="91.4557" ry="41.0911"/>
<text text-anchor="middle" x="733" y="-139.895" font-family="Times,serif" font-size="14.00" fill="#000000">{</text>
<text text-anchor="middle" x="733" y="-123.095" font-family="Times,serif" font-size="14.00" fill="#000000"> &#160;&#160;&#160;: , : (() =&gt; ), : true</text>
<text text-anchor="middle" x="733" y="-106.295" font-family="Times,serif" font-size="14.00" fill="#000000">}</text>
</g>
<!-- {
 &#160;&#160;&#160;: , : (() =&gt; ), : true
}&#45;&gt;NgxEditorComponent -->
<g id="edge4" class="edge">
<title>{
 &#160;&#160;&#160;: , : (() =&gt; ), : true
}&#45;&gt;NgxEditorComponent</title>
<path fill="none" stroke="#000000" d="M733,-168.5989C733,-168.5989 733,-187.2551 733,-187.2551"/>
<polygon fill="#000000" stroke="#000000" points="729.5001,-187.255 733,-197.2551 736.5001,-187.2551 729.5001,-187.255"/>
</g>
<!-- CommandExecutorService -->
<g id="node8" class="node">
<title>CommandExecutorService</title>
<ellipse fill="#fdb462" stroke="#000000" cx="321" cy="-215.5901" rx="115.1706" ry="18"/>
<text text-anchor="middle" x="321" y="-211.3901" font-family="Times,serif" font-size="14.00" fill="#000000">CommandExecutorService</text>
</g>
<!-- CommandExecutorService&#45;&gt;NgxEditorModule -->
<g id="edge7" class="edge">
<title>CommandExecutorService&#45;&gt;NgxEditorModule</title>
<path fill="none" stroke="#000000" d="M321,-233.6126C321,-250.9634 321,-274.5901 321,-274.5901 321,-274.5901 572.7496,-274.5901 572.7496,-274.5901"/>
<polygon fill="#000000" stroke="#000000" points="572.7496,-278.0902 582.7496,-274.5901 572.7495,-271.0902 572.7496,-278.0902"/>
</g>
<!-- MessengerService -->
<g id="node9" class="node">
<title>MessengerService</title>
<ellipse fill="#fdb462" stroke="#000000" cx="106" cy="-215.5901" rx="81.6384" ry="18"/>
<text text-anchor="middle" x="106" y="-211.3901" font-family="Times,serif" font-size="14.00" fill="#000000">MessengerService</text>
</g>
<!-- MessengerService&#45;&gt;NgxEditorModule -->
<g id="edge8" class="edge">
<title>MessengerService&#45;&gt;NgxEditorModule</title>
<path fill="none" stroke="#000000" d="M106,-233.8743C106,-254.9111 106,-286.5901 106,-286.5901 106,-286.5901 572.8482,-286.5901 572.8482,-286.5901"/>
<polygon fill="#000000" stroke="#000000" points="572.8483,-290.0902 582.8482,-286.5901 572.8482,-283.0902 572.8483,-290.0902"/>
</g>
</g>
</svg>
